<svg width="132" height="34" viewBox="0 0 132 34" fill="none" xmlns="http://www.w3.org/2000/svg">
<g clip-path="url(#clip0_1_42)">
<path d="M41.6147 26.9036L43.2256 23.0242C44.9895 24.37 47.2901 25.0823 49.5913 25.0823C51.2787 25.0823 52.3523 24.4097 52.3523 23.3806C52.3138 20.5303 42.19 22.7471 42.113 15.581C42.0745 11.939 45.2194 9.12835 49.6683 9.12835C52.3138 9.12835 54.9604 9.80155 56.8392 11.3457L55.3339 15.3079C53.6052 14.1626 51.4701 13.3642 49.4379 13.3642C48.0574 13.3642 47.1367 14.0368 47.1367 14.9084C47.1752 17.719 57.3766 16.1749 57.4915 23.0242C57.4915 26.7455 54.4231 29.3584 50.0511 29.3584C46.8303 29.3584 43.8774 28.5667 41.6141 26.9036M105.76 21.6194C105.353 22.3638 104.762 22.9833 104.046 23.4145C103.331 23.8457 102.516 24.073 101.687 24.0731C99.1034 24.0731 97.009 21.9107 97.009 19.2434C97.009 16.5761 99.1034 14.4137 101.687 14.4137C102.516 14.4137 103.331 14.641 104.046 15.0722C104.762 15.5034 105.353 16.1229 105.76 16.8673L110.239 14.306C108.561 11.2171 105.361 9.12835 101.687 9.12835C96.2759 9.12835 91.8891 13.6566 91.8891 19.2434C91.8891 24.8296 96.2759 29.3584 101.687 29.3584C105.361 29.3584 108.561 27.2696 110.239 24.1807L105.76 21.6194ZM60.3977 28.9623H65.9967V0.708252H60.3983L60.3977 28.9623ZM113.066 0.708252V28.9623H118.665V20.4974L125.3 28.9623H132.457L124.02 18.9062L131.843 9.52275H124.993L118.665 17.3241V0.708252H113.066ZM83.2464 9.52388V11.8206C82.3262 10.2368 80.0635 9.12835 77.6859 9.12835C72.7771 9.12835 68.904 13.6022 68.904 19.2235C68.904 24.8449 72.7771 29.3584 77.6859 29.3584C80.0635 29.3584 82.3262 28.25 83.2464 26.6661V28.9623H88.8454V9.52388H83.2464ZM83.2464 21.6585C82.4412 23.044 80.7538 24.0725 78.875 24.0725C76.2905 24.0725 74.1961 21.9107 74.1961 19.2434C74.1961 16.5761 76.2905 14.4137 78.875 14.4137C80.7538 14.4137 82.4412 15.4824 83.2464 16.907V21.6585Z" fill="#AFB3C4"/>
<path d="M12.0461 0.0839844C10.2317 0.0839844 8.76095 1.60265 8.76095 3.47548C8.76052 3.92042 8.84515 4.36108 9.01001 4.77231C9.17487 5.18355 9.41673 5.5573 9.72178 5.87223C10.0268 6.18716 10.3891 6.4371 10.7879 6.60778C11.1867 6.77846 11.6143 6.86654 12.0461 6.86698H15.3318V3.47548C15.3325 2.57685 14.9868 1.71472 14.3706 1.07871C13.7544 0.442692 12.9183 0.0848857 12.0461 0.0839844M12.0461 9.12798H3.28515C1.4707 9.12798 0 10.6467 0 12.5201C0 14.3929 1.4707 15.9116 3.28515 15.9116H12.0467C13.8606 15.9116 15.3318 14.3929 15.3318 12.5201C15.3318 10.6467 13.8606 9.12798 12.0461 9.12798" fill="#AFB3C4"/>
<path d="M32.8537 12.5201C32.8537 10.6467 31.3825 9.12798 29.568 9.12798C27.7536 9.12798 26.2829 10.6467 26.2829 12.5201V15.9116H29.568C30.4402 15.9106 31.2764 15.5528 31.8925 14.9168C32.5087 14.2808 32.8544 13.4187 32.8537 12.5201M24.0928 12.5201V3.47548C24.0935 2.57685 23.7477 1.71472 23.1316 1.07871C22.5154 0.442692 21.6793 0.0848857 20.8071 0.0839844C18.9926 0.0839844 17.5219 1.60265 17.5219 3.47548V12.5195C17.5219 14.3935 18.9926 15.9121 20.8071 15.9121C21.6793 15.9112 22.5154 15.5534 23.1316 14.9174C23.7477 14.2814 24.0935 13.4192 24.0928 12.5206" fill="#AFB3C4"/>
<path d="M20.8071 33.9999C21.6793 33.999 22.5154 33.6412 23.1316 33.0052C23.7477 32.3692 24.0935 31.5071 24.0928 30.6084C24.0935 29.7098 23.7477 28.8477 23.1316 28.2117C22.5154 27.5756 21.6793 27.2178 20.8071 27.2169H17.5219V30.6084C17.5219 32.4813 18.9926 33.9999 20.8071 33.9999ZM20.8071 24.9559H29.5686C31.3825 24.9559 32.8537 23.4373 32.8537 21.5639C32.8544 20.6652 32.5087 19.8031 31.8925 19.1671C31.2764 18.5311 30.4402 18.1733 29.568 18.1724H20.8071C18.9926 18.1724 17.5219 19.691 17.5219 21.5639C17.5215 22.0088 17.6061 22.4495 17.771 22.8607C17.9358 23.2719 18.1777 23.6457 18.4827 23.9606C18.7878 24.2755 19.1501 24.5255 19.5489 24.6962C19.9477 24.8668 20.3752 24.9549 20.8071 24.9554" fill="#AFB3C4"/>
<path d="M1.65761e-06 21.5639C-0.000431922 22.0088 0.0841971 22.4495 0.249057 22.8607C0.413916 23.2719 0.655778 23.6457 0.960832 23.9606C1.26589 24.2755 1.62816 24.5255 2.02697 24.6962C2.42577 24.8668 2.85331 24.9549 3.28515 24.9554C4.15735 24.9545 4.99349 24.5967 5.60967 23.9606C6.22584 23.3246 6.57158 22.4625 6.57085 21.5639V18.1724H3.28515C1.4707 18.1724 1.65761e-06 19.691 1.65761e-06 21.5639M8.76095 21.5639V30.6079C8.76095 32.4813 10.2317 33.9999 12.0461 33.9999C12.9183 33.999 13.7544 33.6412 14.3706 33.0052C14.9868 32.3692 15.3325 31.5071 15.3318 30.6084V21.5639C15.3322 21.1189 15.2476 20.6782 15.0827 20.2669C14.9178 19.8556 14.6759 19.4819 14.3708 19.1669C14.0657 18.852 13.7033 18.6021 13.3045 18.4314C12.9056 18.2608 12.478 18.1727 12.0461 18.1724C10.2317 18.1724 8.76095 19.691 8.76095 21.5639Z" fill="#AFB3C4"/>
</g>
<defs>
<clipPath id="clip0_1_42">
<rect width="132" height="34" fill="white"/>
</clipPath>
</defs>
</svg>
