<svg width="91" height="38" viewBox="0 0 91 38" fill="none" xmlns="http://www.w3.org/2000/svg">
<path d="M23.4609 3.34844L17.3042 4.64219L17.2758 24.6672C17.2758 28.3656 20.0911 30.7563 23.8306 30.7563C25.9066 30.7563 27.428 30.3766 28.2669 29.9266V25.1734C27.4564 25.4969 23.4752 26.65 23.4752 22.9656V14.0781H28.2669V8.7625H23.4752L23.4609 3.34844ZM36.1298 10.6047L35.7459 8.7625H30.2859V30.3062H36.5848V15.8078C38.0778 13.8672 40.5945 14.2469 41.405 14.5V8.7625C40.5519 8.46719 37.6086 7.91875 36.1298 10.6047ZM49.2538 0.4375L42.9122 1.77344V6.86406L49.2538 5.52812V0.4375ZM6.38422 15.1047C6.38422 14.1344 7.20891 13.7547 8.53125 13.7406C10.4508 13.7406 12.8964 14.3172 14.8159 15.3438V9.46562C12.7258 8.65 10.6356 8.32656 8.54547 8.32656C3.42672 8.32656 0.0142212 10.9703 0.0142212 15.3859C0.0142212 22.3047 9.61188 21.1797 9.61188 24.1609C9.61188 25.3141 8.60235 25.6938 7.19469 25.6938C5.10453 25.6938 2.40297 24.8359 0.284377 23.6969V29.3219C2.63047 30.3203 5.005 30.7422 7.18047 30.7422C12.4272 30.7422 16.0388 28.5203 16.0388 24.0203C16.0388 16.5813 6.38422 17.9172 6.38422 15.1047V15.1047ZM91 19.7875C91 13.3891 87.8719 8.34062 81.8716 8.34062C75.8713 8.34062 72.217 13.3891 72.217 19.7453C72.217 27.2687 76.5253 30.7422 82.6678 30.7422C85.6822 30.7422 87.943 30.0672 89.6634 29.125V24.4281C87.943 25.2859 85.9666 25.8062 83.4641 25.8062C81.0042 25.8062 78.843 24.9484 78.5586 22.0234H90.9147C90.9431 21.7 91 20.3922 91 19.7875V19.7875ZM78.5017 17.425C78.5017 14.6125 80.2506 13.4312 81.8289 13.4312C83.3788 13.4312 85.0281 14.6125 85.0281 17.425H78.5017ZM62.4488 8.34062C59.9747 8.34062 58.3822 9.49375 57.5006 10.2953L57.1736 8.74844H51.6141V37.5484L57.9272 36.2266L57.9414 29.1672C58.8514 29.8281 60.2022 30.7422 62.4061 30.7422C66.9277 30.7422 71.0511 27.4797 71.0511 19.5484C71.0653 12.2922 66.885 8.34062 62.4488 8.34062V8.34062ZM60.9416 25.5672C59.4628 25.5672 58.5813 25.0328 57.9698 24.3859L57.9272 15.1047C58.5813 14.3875 59.4913 13.8672 60.9416 13.8672C63.245 13.8672 64.8375 16.4266 64.8375 19.6891C64.8517 23.05 63.2877 25.5672 60.9416 25.5672ZM42.9264 30.3062H49.268V8.7625H42.9264V30.3062Z" fill="#AFB3C4"/>
</svg>
