<svg width="129" height="26" viewBox="0 0 129 26" fill="none" xmlns="http://www.w3.org/2000/svg">
<path d="M8.40726 24.904H3.56671V12.9816H0.269226V9.09992H3.56658V6.33782C3.56658 3.06473 5.025 0.717285 9.85246 0.717285C10.8735 0.717285 12.4764 0.920616 12.4764 0.920616V4.52498H10.7928C9.07732 4.52498 8.40752 5.04054 8.40752 6.46589V9.09992H12.4122L12.0556 12.9816H8.40739L8.40726 24.904ZM19.514 8.78972C19.4435 8.78972 19.3709 8.79226 19.2991 8.79403C14.8107 8.79403 12.7571 12.1298 12.7571 16.8651C12.7571 22.8302 15.4209 25.2176 19.3342 25.2176C21.5732 25.2176 23.0442 24.2865 23.9383 22.5489V24.9057H28.5423V9.10157H23.9383V11.532C23.2082 9.96833 21.6961 8.80825 19.514 8.78972ZM20.6847 12.5242C22.5699 12.5242 23.7014 13.8234 23.7014 16.0332L23.7057 18.2903C23.7057 19.7797 22.7712 21.5223 20.6847 21.5223C17.477 21.5223 17.5627 18.1002 17.5627 16.9604C17.5627 13.1264 19.2718 12.5242 20.6847 12.5242ZM30.4017 17.0044C30.4017 15.084 30.3087 8.8 38.595 8.8C41.9212 8.8 43.3101 9.84496 43.3101 9.84496L42.1938 13.2659C42.1938 13.2659 40.8067 12.5112 38.9992 12.5112C36.6842 12.5112 35.207 13.8372 35.207 16.1702L35.2096 17.843C35.2096 20.0847 36.6349 21.5812 39.004 21.5812C40.6506 21.5812 42.1682 20.8194 42.1682 20.8194L43.2817 24.1689C43.2817 24.1689 42.0118 25.2204 38.6182 25.2204C30.7284 25.2204 30.4018 19.5825 30.4018 17.0044H30.4017ZM70.3054 8.79403C74.794 8.79403 76.88 12.1298 76.88 16.8651C76.88 22.8302 74.2161 25.2176 70.3027 25.2176C68.0638 25.2176 66.4087 24.2866 65.5146 22.5489V24.9057L60.9685 24.9039V1.19782L65.7953 0.781889V11.3179C66.4919 9.4746 68.7814 8.79403 70.3056 8.79403H70.3054ZM68.9522 12.5242C67.067 12.5242 65.7953 13.8234 65.7953 16.0332L65.7908 18.2903C65.7879 19.7797 66.6715 21.5223 68.9522 21.5223C72.1599 21.5223 72.0742 18.1002 72.0742 16.9604C72.0742 13.1264 70.3653 12.5242 68.9522 12.5242ZM51.6851 8.80711C46.5941 8.80711 43.9065 11.5495 43.9065 16.4231V17.3286C43.9065 23.6541 47.6808 25.2826 52.1805 25.2826C56.5543 25.2826 58.534 24.0739 58.534 24.0739L57.6308 20.8552C57.6308 20.8552 55.302 21.8341 52.7593 21.8341C50.1232 21.8341 48.9895 21.1703 48.699 18.6674H58.9199V16.0851C58.9199 10.7985 55.9035 8.80698 51.6849 8.80698L51.6851 8.80711ZM51.8077 12.0302C53.57 12.0302 54.7119 13.0979 54.6492 15.574H48.7078C48.8109 12.9679 50.0423 12.0303 51.8077 12.0303V12.0302ZM86.5044 8.78541C81.2764 8.78541 78.5241 11.6963 78.5241 16.9127C78.5241 24.0699 83.2685 25.2219 86.5132 25.2219C91.2632 25.2219 94.4233 22.6953 94.4233 16.9777C94.4233 11.0266 90.8701 8.78541 86.5044 8.78541ZM86.4387 12.5371C88.7375 12.5371 89.6484 14.237 89.6484 16.1719V17.8355C89.6484 20.1795 88.3738 21.5353 86.4299 21.5353C84.6119 21.5353 83.3343 20.2671 83.3343 17.8355V16.1719C83.3343 13.5787 84.8546 12.5371 86.4387 12.5371ZM104.039 8.78541C98.8112 8.78541 96.0589 11.6963 96.0589 16.9127C96.0589 24.0699 100.803 25.2219 104.048 25.2219C108.798 25.2219 111.958 22.6953 111.958 16.9777C111.958 11.0266 108.405 8.78541 104.039 8.78541ZM103.973 12.5371C106.272 12.5371 107.183 14.237 107.183 16.1719V17.8355C107.183 20.1795 105.908 21.5353 103.965 21.5353C102.147 21.5353 100.869 20.2671 100.869 17.8355V16.1719C100.869 13.5787 102.389 12.5371 103.973 12.5371ZM113.782 24.904V1.19782L118.623 0.782016V16.6714L123.426 9.10005H128.538L123.528 16.9417L128.731 24.904H123.604L118.623 17.1726V24.904H113.782Z" fill="#AFB3C4"/>
</svg>
