<svg width="152" height="70" viewBox="0 0 152 70" fill="none" xmlns="http://www.w3.org/2000/svg">
<g clip-path="url(#clip0_1_33)">
<path fill-rule="evenodd" clip-rule="evenodd" d="M47.8599 67.8944C49.1826 69.2049 50.9765 69.9412 52.8471 69.9412H52.7941C49.2799 69.9412 46.3704 67.3515 45.8701 63.9763C46.0905 65.4512 46.7831 66.8275 47.8599 67.8944ZM45.7941 62.9412C45.7941 63.2929 45.8201 63.6386 45.8701 63.9763C45.8198 63.6395 45.7941 63.2976 45.7941 62.953V62.9412ZM45.7941 7.05884C45.7941 6.70718 45.8201 6.36157 45.8701 6.02382C46.0904 4.54895 46.7831 3.17256 47.8599 2.10564C49.1826 0.795096 50.9765 0.0588379 52.8471 0.0588379H52.7941C49.2798 0.0588379 46.3704 2.64862 45.8701 6.02382C45.8198 6.36061 45.7941 6.70253 45.7941 7.04707V7.05884ZM144.535 0.0588379C146.406 0.0588379 148.2 0.795096 149.522 2.10564C150.6 3.1735 151.293 4.55138 151.513 6.02772C151.562 6.3609 151.588 6.70167 151.588 7.04839V7.04707C151.588 6.70386 151.563 6.36325 151.513 6.02772C151.014 2.65063 148.104 0.0588379 144.588 0.0588379H144.535ZM151.588 62.9516C151.588 63.2979 151.562 63.6383 151.513 63.9711C151.294 65.4479 150.601 66.8262 149.522 67.8944C148.2 69.2049 146.406 69.9412 144.535 69.9412H144.588C148.104 69.9412 151.015 67.3488 151.513 63.9711C151.563 63.636 151.588 63.2958 151.588 62.953V62.9516ZM86.7984 30.178C86.8706 30.1427 86.9498 30.1239 87.0303 30.1228L90.5039 30.1141L90.5803 30.1112C90.7991 30.112 91.0113 30.1852 91.1833 30.3192C91.3553 30.4532 91.4771 30.6403 91.5295 30.8507L93.5719 37.7575L98.509 30.577L98.5119 30.5741C98.6003 30.4334 98.7231 30.3172 98.8691 30.2362C99.015 30.1552 99.1793 30.1122 99.3465 30.1112H102.929C103.009 30.1124 103.088 30.1314 103.159 30.1667C103.231 30.2019 103.294 30.2526 103.343 30.315C103.458 30.4323 103.524 30.5883 103.528 30.7518V30.7488L103.531 30.7925C103.531 30.8946 103.497 30.9937 103.434 31.075L91.5854 48.0185L91.5824 48.0214C91.4948 48.1621 91.3724 48.2784 91.227 48.3594C91.0815 48.4404 90.9176 48.4834 90.7508 48.4844H87.1743L87.095 48.4902C86.7982 48.4902 86.5601 48.2515 86.5601 47.9603L86.566 47.8875L86.6777 47.6837C87.7725 45.8187 89.0094 44.0393 90.3775 42.361C90.3462 42.2328 89.9828 41.1594 89.2873 39.1405L88.6672 37.3411L87.333 33.4801C86.7159 31.6952 86.4279 30.8245 86.4279 30.7634C86.431 30.5997 86.4973 30.4434 86.613 30.3266C86.6629 30.264 86.7262 30.2132 86.7984 30.178ZM128.031 29.7996H128.108V29.7939C128.936 29.6981 129.774 29.8141 130.544 30.131C131.321 30.451 132.002 30.9647 132.519 31.6224C132.607 30.612 132.88 30.1024 133.312 30.1024H136.848C136.938 30.1024 137.026 30.1235 137.107 30.164C137.187 30.2045 137.256 30.2632 137.309 30.3354C137.37 30.4053 137.414 30.488 137.438 30.5773C137.462 30.6666 137.465 30.7601 137.447 30.8507L135.543 42.8676V42.8705C135.535 42.9948 135.502 43.1163 135.446 43.2279C135.39 43.3394 135.312 43.4387 135.217 43.5198C135.122 43.601 135.011 43.6624 134.891 43.7004C134.772 43.7384 134.645 43.7523 134.52 43.7411H131.314C130.911 43.7411 130.709 43.4936 130.709 43.0045V42.9986C130.719 42.8132 130.75 42.6295 130.803 42.4512L130.797 42.4803C130.835 42.3464 130.867 42.2066 130.897 42.0407L130.891 42.0465C130.312 42.6871 129.577 43.1908 128.71 43.514L128.757 43.4965C127.899 43.8576 126.959 44.0585 125.968 44.0702H125.983C125.191 44.1099 124.399 43.9871 123.656 43.7095C122.915 43.4323 122.239 43.0066 121.671 42.4591C120.673 41.4022 120.059 39.9787 120.059 38.4155C120.059 38.3165 120.059 38.2146 120.065 38.1302V38.0545C120.062 35.9012 120.905 33.8313 122.416 32.2833L122.421 32.2775C123.803 30.7576 125.804 29.7996 128.031 29.7996ZM75.3019 29.7996H75.3195L75.3245 29.7971C76.1525 29.709 76.9898 29.8289 77.759 30.1459C78.5352 30.4657 79.2167 30.9758 79.7394 31.6282C79.8246 30.6178 80.0979 30.1082 80.5299 30.1082H84.0652C84.1552 30.1082 84.2439 30.1293 84.3241 30.1698C84.4043 30.2103 84.4737 30.269 84.5265 30.3412C84.5866 30.4105 84.6305 30.4921 84.6549 30.5803C84.6793 30.6684 84.6836 30.7608 84.6676 30.8507L82.7604 42.8676V42.8705C82.7526 42.9948 82.7198 43.1163 82.6638 43.2279C82.6079 43.3394 82.5299 43.4387 82.4346 43.5198C82.3393 43.601 82.2285 43.6624 82.1088 43.7004C81.9891 43.7384 81.8629 43.7523 81.7377 43.7411H78.5345C78.1348 43.7411 77.9291 43.4936 77.9291 43.0045V42.9986C77.9379 42.655 78.0055 42.3231 78.1142 42.0378L78.1113 42.0407C77.5089 42.6783 76.7624 43.1792 75.8837 43.5111L75.9308 43.4936C75.0874 43.8518 74.1617 44.0527 73.186 44.0673H73.2007L72.9186 44.0731C71.3503 44.0731 69.9288 43.4566 68.8887 42.4561C68.3409 41.8794 67.916 41.1992 67.6395 40.4562C67.3628 39.7127 67.2402 38.9216 67.2792 38.1302V38.0545C67.2763 35.9012 68.1195 33.8313 69.6301 32.2833L69.636 32.2775C71.0113 30.7576 73.0126 29.7996 75.2372 29.7996H75.3019ZM141.585 23.35L141.632 23.353H145.064L145.108 23.35C145.186 23.3504 145.262 23.3663 145.333 23.3968C145.403 23.4274 145.467 23.4719 145.52 23.5277V23.5248C145.621 23.6573 145.675 23.8188 145.676 23.9848L145.673 24.0489L142.657 42.8734V42.8793C142.657 43.1109 142.565 43.3331 142.399 43.4969C142.234 43.6607 142.01 43.7528 141.776 43.7528L141.682 43.747H138.596C138.51 43.7475 138.425 43.7292 138.347 43.6935C138.268 43.6577 138.199 43.6054 138.144 43.5402C138.077 43.4716 138.029 43.3871 138.005 43.2947C137.98 43.2024 137.981 43.1054 138.005 43.0132L141.026 23.8596V23.8567C141.038 23.7182 141.102 23.5892 141.206 23.4953C141.309 23.4014 141.445 23.3496 141.585 23.35ZM106.961 23.3827C107.083 23.3467 107.211 23.3366 107.337 23.353L114.71 23.35C116.367 23.2652 118.01 23.6914 119.412 24.5701L119.424 24.5788C120.032 25.0316 120.513 25.6297 120.824 26.3172C121.134 27.0016 121.264 27.7524 121.203 28.4999C121.202 28.4954 121.202 28.4909 121.202 28.4864V28.5097C121.202 28.5064 121.202 28.5032 121.203 28.4999C121.27 29.6306 121.104 30.7631 120.714 31.828C120.323 32.8957 119.716 33.873 118.93 34.6997C117.352 36.1483 115.278 36.9515 113.126 36.948C112.751 36.9517 112.376 36.9322 112.004 36.8898C111.663 36.8577 111.369 36.8432 111.122 36.8432H111.119C110.84 36.8461 110.567 36.8694 110.329 36.913H110.32C110.064 36.9488 109.824 37.0524 109.623 37.213H109.62C109.436 37.3615 109.319 37.576 109.294 37.8099L108.457 43.15V43.1559C108.423 43.3232 108.332 43.4738 108.199 43.5821C108.067 43.6904 107.9 43.7497 107.728 43.7499H103.893C103.803 43.7504 103.715 43.7295 103.635 43.6889C103.555 43.6484 103.486 43.5894 103.434 43.5169C103.375 43.4475 103.333 43.3662 103.309 43.2787C103.285 43.1912 103.281 43.0996 103.296 43.0103L106.314 24.2236C106.317 24.0975 106.346 23.9735 106.401 23.8595C106.455 23.7455 106.533 23.6441 106.629 23.5619C106.726 23.4798 106.839 23.4187 106.961 23.3827ZM54.1278 23.3902C54.2455 23.3526 54.3698 23.3399 54.4928 23.353L61.9219 23.3559C63.5722 23.2763 65.207 23.7034 66.6033 24.5788L66.615 24.5875C67.2226 25.0404 67.7044 25.6385 68.0153 26.3259C68.3249 27.0104 68.455 27.7612 68.3937 28.5087C68.3935 28.5042 68.3932 28.4996 68.3929 28.4951V28.5184C68.3932 28.5152 68.3935 28.5119 68.3937 28.5087C68.4606 29.6393 68.2942 30.7717 67.9046 31.8365C67.514 32.9042 66.9072 33.8815 66.1216 34.7083C64.5938 36.1046 62.5553 36.9567 60.3144 36.9567C59.9403 36.9603 59.5664 36.9408 59.1947 36.8985C58.8538 36.8665 58.56 36.8519 58.3131 36.8519H58.3102C58.0461 36.853 57.7826 36.8763 57.5226 36.9218H57.5138C57.2585 36.9575 57.0178 37.0611 56.8173 37.2217H56.8144C56.6325 37.3715 56.5166 37.5856 56.4911 37.8186L55.6536 42.8822C55.6509 43.0082 55.6215 43.1323 55.5672 43.2463C55.5129 43.3603 55.435 43.4617 55.3385 43.5438C55.242 43.626 55.1291 43.687 55.0072 43.723C54.8852 43.759 54.757 43.7692 54.6309 43.7528H51.0927C51.003 43.7533 50.9145 43.7324 50.8347 43.6918C50.7549 43.6513 50.6861 43.5923 50.6342 43.5198C50.5752 43.4505 50.5323 43.3692 50.5084 43.2817C50.4845 43.1942 50.4803 43.1025 50.4961 43.0132L53.5171 24.2265V24.2207C53.5172 24.0982 53.5433 23.9771 53.5938 23.8652C53.6442 23.7534 53.7178 23.6533 53.8098 23.5714C53.9018 23.4896 54.0102 23.4279 54.1278 23.3902ZM127.773 40.346L127.914 40.3431L127.92 40.3373H127.99C128.508 40.3383 129.02 40.2382 129.499 40.0429C129.978 39.8475 130.413 39.5607 130.779 39.1988C131.505 38.5087 131.955 37.5362 131.955 36.4617V36.3977L131.958 36.2579C131.958 35.8894 131.882 35.5248 131.733 35.1871C131.584 34.8493 131.366 34.5457 131.094 34.2954L131.097 34.2983C130.544 33.8237 129.824 33.5354 129.034 33.5354L128.934 33.5383H128.843C127.749 33.5383 126.762 33.9838 126.054 34.703C125.334 35.4193 124.89 36.4064 124.89 37.4954V37.574L124.887 37.705C124.887 38.0623 124.961 38.4158 125.106 38.7431C125.251 39.0704 125.462 39.3643 125.727 39.6064L125.722 39.6035C126.295 40.0836 127.022 40.3467 127.773 40.346ZM74.9316 40.346L75.0785 40.3431H75.0815H75.0874H75.1873C76.2326 40.344 77.2376 39.9432 77.9908 39.225C78.7167 38.5349 79.1663 37.5682 79.1663 36.4938V36.3977L79.1692 36.255C79.1698 35.8872 79.0937 35.5232 78.9455 35.186C78.7973 34.8488 78.5803 34.5455 78.3082 34.2954L78.3111 34.2983C77.7587 33.8237 77.0387 33.5354 76.2481 33.5354L76.1482 33.5383H76.0513C74.958 33.5383 73.9736 33.9838 73.2653 34.703C72.5454 35.4193 72.1016 36.4064 72.1016 37.4954V37.574L72.0987 37.7109C72.0985 38.0651 72.1707 38.4158 72.3112 38.7416C72.4516 39.0674 72.6572 39.3616 72.9156 39.6064L72.9127 39.6035C73.4534 40.0665 74.1617 40.346 74.9316 40.346ZM110.86 27.9652L110.07 32.889L110.076 32.9006L111.548 32.8544C112.622 32.9271 113.693 32.6838 114.628 32.1552L114.631 32.1523C115.005 31.8318 115.294 31.4247 115.471 30.967C115.649 30.5096 115.709 30.0159 115.648 29.5298L115.651 29.424C115.651 29.182 115.601 28.9425 115.505 28.7201C115.408 28.4978 115.267 28.2974 115.089 28.1312C114.778 27.84 114.381 27.6362 113.926 27.5546L113.981 27.5605C113.491 27.4935 112.988 27.4585 112.48 27.4585L112.3 27.4615H111.466C111.393 27.4551 111.319 27.463 111.249 27.4849C111.179 27.5068 111.114 27.5421 111.058 27.5889C111.001 27.6357 110.955 27.693 110.921 27.7576C110.887 27.8222 110.867 27.8927 110.86 27.9652ZM58.0251 27.9652L57.2346 32.889L57.1935 32.8861C58.6702 33.0341 60.1616 32.8469 61.5545 32.3387L61.5633 32.3328C61.9196 32.1015 62.2145 31.7887 62.4231 31.4208C62.6318 31.0529 62.7482 30.6407 62.7623 30.2189C62.9475 29.0891 62.7594 28.3408 62.204 27.9885L62.2334 28.003C61.3919 27.5804 60.45 27.3932 59.5092 27.4615H58.6305C58.5573 27.4547 58.4834 27.4624 58.4132 27.4841C58.343 27.5058 58.2779 27.5411 58.2215 27.588C58.1652 27.6348 58.1189 27.6923 58.0851 27.7571C58.0514 27.8218 58.031 27.8926 58.0251 27.9652Z" fill="#AFB3C4"/>
</g>
<path d="M23.224 50.3049H18.1203C17.9929 50.3117 17.8657 50.2878 17.7495 50.235C17.6333 50.1822 17.5316 50.1021 17.453 50.0015C17.3729 49.8988 17.3153 49.7804 17.2839 49.6539C17.2526 49.5275 17.2482 49.3958 17.2711 49.2675C17.3519 48.7802 17.453 48.1372 17.5784 47.3203L17.8089 45.8503C18.0383 44.3747 18.2728 42.8999 18.5126 41.426V41.3856L18.8928 39.0319L19.095 37.7802V37.7701C19.2405 36.8703 19.3558 36.1565 19.4387 35.6247C19.4433 35.5167 19.4701 35.4107 19.5173 35.3135C19.5646 35.2162 19.6314 35.1297 19.7135 35.0594C19.7956 34.989 19.8913 34.9363 19.9947 34.9045C20.098 34.8727 20.2068 34.8625 20.3143 34.8745H23.3878C24.8623 34.8908 26.3342 34.7471 27.7777 34.4458C29.9511 34.0121 31.9672 32.9999 33.6133 31.5159C35.0557 30.1302 36.1384 28.4138 36.7678 26.5153C37.0751 25.6337 37.3137 24.7278 37.4795 23.8098C37.4937 23.7249 37.5098 23.6764 37.5301 23.6602C37.5359 23.6524 37.5436 23.6461 37.5524 23.6419C37.5612 23.6376 37.5709 23.6356 37.5806 23.6359H37.6008C37.6452 23.6546 37.6873 23.6784 37.7262 23.7067C38.7878 24.5094 39.4975 25.6924 39.7078 27.0067C39.9464 28.3817 39.9201 29.789 39.6269 31.1539C39.244 33.7945 37.9084 36.2038 35.872 37.9278C33.6224 39.5313 30.8965 40.3267 28.1376 40.1844H27.2499C26.9195 40.1817 26.5997 40.3012 26.3521 40.5201C26.0954 40.7429 25.9245 41.0482 25.8689 41.3835L25.788 41.7758L24.6678 48.8085L24.6273 49.1139C24.569 49.4529 24.3902 49.7595 24.1238 49.9773C23.8738 50.1924 23.5538 50.3088 23.224 50.3049ZM15.9891 46.2607H9.99367C9.85238 46.2637 9.71218 46.2353 9.58317 46.1776C9.45415 46.1199 9.33953 46.0344 9.24753 45.9271C9.1517 45.8218 9.08099 45.6961 9.04072 45.5595C9.00044 45.4229 8.99165 45.279 9.01499 45.1385L13.7284 15.2322C13.7877 14.8485 13.9873 14.5005 14.2885 14.2556C14.5795 14.0047 14.9518 13.8681 15.336 13.8714H27.4966C28.1639 13.8977 28.8271 13.9867 29.4782 14.1363C30.2507 14.2839 31.011 14.5003 31.747 14.7833C33.0862 15.2569 34.2475 16.1308 35.0733 17.2867C35.8565 18.4664 36.2575 19.8586 36.2218 21.2742C36.1881 22.9156 35.8735 24.5392 35.2916 26.0745C34.8334 27.5455 34.039 28.8895 32.9713 30.0003C31.9037 31.1111 30.5922 31.9581 29.1405 32.4743C27.489 33.0336 25.7583 33.3238 24.0146 33.3337C23.9944 33.3458 23.1249 33.3479 22.1948 33.3479L20.3749 33.3337C19.7983 33.2749 19.2219 33.447 18.772 33.8124C18.3221 34.1778 18.0354 34.7066 17.9747 35.283C17.9485 35.3922 17.3337 39.2199 16.2459 46.0585C16.2459 46.0906 16.2388 46.1222 16.2251 46.1511C16.2114 46.1801 16.1915 46.2057 16.1667 46.226C16.142 46.2463 16.113 46.2608 16.0819 46.2686C16.0509 46.2764 16.0185 46.2771 15.9871 46.2708L15.9891 46.2607Z" fill="#AFB3C4"/>
<defs>
<clipPath id="clip0_1_33">
<rect width="105.794" height="69.8824" fill="white" transform="translate(45.7941 0.0588379)"/>
</clipPath>
</defs>
</svg>
