<svg width="135" height="41" viewBox="0 0 135 41" fill="none" xmlns="http://www.w3.org/2000/svg">
<g clip-path="url(#clip0_1_21)">
<path d="M83.7328 32.0304C75.8971 37.8419 64.5397 40.9426 54.7612 40.9426C41.0502 40.9426 28.7067 35.8398 19.3685 27.3529C18.6348 26.6855 19.2922 25.776 20.1726 26.2957C30.2504 32.1958 42.7112 35.7453 55.5829 35.7453C64.2638 35.7453 73.8134 33.9381 82.5941 30.1877C83.9206 29.6208 85.0299 31.0618 83.7328 32.0304Z" fill="#AFB3C4"/>
<path d="M86.9903 28.2803C85.9925 26.9928 80.3696 27.672 77.8457 27.9732C77.0768 28.0677 76.9594 27.3944 77.652 26.9101C82.1304 23.7386 89.479 24.654 90.3359 25.7171C91.1928 26.7861 90.1129 34.1981 85.9045 37.7358C85.2588 38.2791 84.6425 37.9897 84.9302 37.2692C85.8751 34.895 87.994 29.5737 86.9903 28.2803Z" fill="#AFB3C4"/>
<path d="M78.0218 4.52048V1.43755C78.0218 0.970976 78.374 0.657959 78.7966 0.657959H92.5135C92.9537 0.657959 93.3059 0.976883 93.3059 1.43755V4.07753C93.3 4.52048 92.9302 5.09926 92.2728 6.01469L85.1649 16.2262C87.8062 16.1612 90.5942 16.5569 92.9889 17.9153C93.5289 18.2224 93.6756 18.6712 93.7167 19.1142V22.4038C93.7167 22.8527 93.2237 23.3783 92.7072 23.1066C88.487 20.8801 82.8817 20.6379 78.2155 23.1303C77.7401 23.3901 77.2412 22.8704 77.2412 22.4215V19.2973C77.2412 18.7953 77.247 17.9389 77.746 17.177L85.9808 5.29416H78.8142C78.374 5.29416 78.0218 4.98115 78.0218 4.52048Z" fill="#AFB3C4"/>
<path d="M27.9848 23.7562H23.8116C23.4125 23.7267 23.0956 23.4255 23.0662 23.0416V1.49066C23.0662 1.05952 23.4243 0.716969 23.8703 0.716969H27.7618C28.1668 0.734676 28.4896 1.0477 28.5189 1.4375V4.25466H28.5952C29.6107 1.53199 31.5182 0.262207 34.089 0.262207C36.7009 0.262207 38.3326 1.53199 39.5065 4.25466C40.5161 1.53199 42.811 0.262207 45.2703 0.262207C47.0194 0.262207 48.9329 0.988644 50.1009 2.6187C51.4215 4.43184 51.1515 7.06591 51.1515 9.37516L51.1456 22.9767C51.1456 23.4078 50.7876 23.7562 50.3415 23.7562H46.1742C45.7575 23.7267 45.4229 23.3901 45.4229 22.9767V11.5545C45.4229 10.6449 45.5051 8.37704 45.3055 7.51477C44.9945 6.0678 44.0612 5.66028 42.8521 5.66028C41.8426 5.66028 40.7861 6.33947 40.3576 7.42618C39.9291 8.51288 39.9702 10.3319 39.9702 11.5545V22.9767C39.9702 23.4078 39.6122 23.7562 39.1661 23.7562H34.9988C34.5762 23.7267 34.2475 23.3901 34.2475 22.9767L34.2416 11.5545C34.2416 9.15073 34.6349 5.61304 31.6708 5.61304C28.6715 5.61304 28.7889 9.06213 28.7889 11.5545V22.9767C28.7889 23.4078 28.4309 23.7562 27.9848 23.7562Z" fill="#AFB3C4"/>
<path d="M105.115 0.262207C111.307 0.262207 114.659 5.61304 114.659 12.4167C114.659 18.9901 110.955 24.2051 105.115 24.2051C99.0344 24.2051 95.7241 18.8543 95.7241 12.1864C95.7241 5.4772 99.0755 0.262207 105.115 0.262207ZM105.15 4.66217C102.075 4.66217 101.881 8.87905 101.881 11.5072C101.881 14.1413 101.84 19.7638 105.115 19.7638C108.349 19.7638 108.502 15.228 108.502 12.464C108.502 10.6449 108.426 8.47154 107.88 6.74699C107.41 5.24687 106.477 4.66217 105.15 4.66217Z" fill="#AFB3C4"/>
<path d="M122.688 23.7562H118.533C118.116 23.7267 117.781 23.3901 117.781 22.9767L117.776 1.41978C117.811 1.02408 118.157 0.716969 118.58 0.716969H122.448C122.812 0.734676 123.111 0.982739 123.193 1.31938V4.61492H123.269C124.437 1.66783 126.075 0.262207 128.957 0.262207C130.829 0.262207 132.655 0.941397 133.828 2.80178C134.92 4.52633 134.92 7.42618 134.92 9.51099V23.0771C134.873 23.455 134.527 23.7562 134.116 23.7562H129.931C129.55 23.7267 129.233 23.4432 129.192 23.0771V11.3714C129.192 9.01489 129.462 5.56579 126.58 5.56579C125.564 5.56579 124.631 6.25089 124.167 7.29034C123.58 8.60738 123.504 9.91851 123.504 11.3714V22.9767C123.498 23.4078 123.134 23.7562 122.688 23.7562Z" fill="#AFB3C4"/>
<path d="M67.087 13.462V12.5525C64.0701 12.5525 60.883 13.2022 60.883 16.7812C60.883 18.5943 61.8163 19.8228 63.4186 19.8228C64.5925 19.8228 65.6432 19.0963 66.3064 17.9151C67.1281 16.4623 67.087 15.098 67.087 13.462ZM71.2954 23.6971C71.0196 23.9452 70.6204 23.9629 70.3094 23.7975C68.9242 22.6399 68.6777 22.1025 67.9146 20.9981C65.6255 23.3487 64.0056 24.0515 61.0356 24.0515C57.5257 24.0515 54.7906 21.8722 54.7906 17.5076C54.7906 14.0999 56.6277 11.7788 59.2396 10.6449C61.5052 9.64084 64.6688 9.46367 67.087 9.18609V8.64273C67.087 7.64462 67.1633 6.46342 66.5823 5.60115C66.0716 4.82746 65.0973 4.50854 64.2404 4.50854C62.6497 4.50854 61.2293 5.32947 60.883 7.0304C60.8126 7.40838 60.5367 7.78046 60.1611 7.79818L56.1112 7.36113C55.7708 7.28436 55.3951 7.00677 55.489 6.48114C56.4223 1.54373 60.8537 0.0554199 64.8214 0.0554199C66.8523 0.0554199 69.5052 0.598771 71.1076 2.14614C73.1384 4.05378 72.9447 6.59926 72.9447 9.36917V15.913C72.9447 17.8797 73.7547 18.742 74.5178 19.8051C74.7877 20.183 74.8464 20.6378 74.506 20.9213C73.6549 21.6359 72.1406 22.9648 71.3072 23.7089L71.2954 23.6971" fill="#AFB3C4"/>
<path d="M12.378 13.462V12.5525C9.36107 12.5525 6.17396 13.2022 6.17396 16.7812C6.17396 18.5943 7.1072 19.8228 8.70956 19.8228C9.88345 19.8228 10.9341 19.0963 11.5973 17.9151C12.419 16.4623 12.378 15.098 12.378 13.462ZM16.5864 23.6971C16.3105 23.9452 15.9114 23.9629 15.6003 23.7975C14.2151 22.6399 13.9686 22.1025 13.2056 20.9981C10.9165 23.3487 9.29651 24.0515 6.32657 24.0515C2.81664 24.0515 0.0814819 21.8722 0.0814819 17.5076C0.0814819 14.0999 1.91862 11.7788 4.53052 10.6449C6.79612 9.64084 9.95975 9.46367 12.378 9.18609V8.64273C12.378 7.64462 12.4543 6.46342 11.8732 5.60115C11.3625 4.82746 10.3882 4.50854 9.53128 4.50854C7.94067 4.50854 6.52026 5.32947 6.17396 7.0304C6.10353 7.40838 5.82766 7.78046 5.45202 7.79818L1.40211 7.36113C1.06168 7.28436 0.686033 7.00677 0.779945 6.48114C1.71319 1.54373 6.14461 0.0554199 10.1124 0.0554199C12.1432 0.0554199 14.7962 0.598771 16.3985 2.14614C18.4294 4.05378 18.2357 6.59926 18.2357 9.36917V15.913C18.2357 17.8797 19.0457 18.742 19.8087 19.8051C20.0787 20.183 20.1374 20.6378 19.7969 20.9213C18.9459 21.6359 17.4316 22.9648 16.5981 23.7089L16.5864 23.6971" fill="#AFB3C4"/>
</g>
<defs>
<clipPath id="clip0_1_21">
<rect width="135" height="41" fill="white"/>
</clipPath>
</defs>
</svg>
