<svg width="21" height="24" viewBox="0 0 21 24" fill="none" xmlns="http://www.w3.org/2000/svg">
<g clip-path="url(#clip0_201_18)">
<path d="M13.0452 21.7363C12.983 21.7405 12.9206 21.7312 12.8622 21.7093C12.8038 21.6873 12.7508 21.6532 12.7067 21.6091C12.6626 21.565 12.6285 21.512 12.6065 21.4536C12.5846 21.3952 12.5753 21.3328 12.5794 21.2706V18.2619C12.5907 18.1529 12.6419 18.052 12.7232 17.9787C12.8045 17.9053 12.9101 17.8647 13.0196 17.8647C13.1291 17.8647 13.2347 17.9053 13.316 17.9787C13.3973 18.052 13.4485 18.1529 13.4597 18.2619V21.2706C13.4604 21.3857 13.4184 21.4971 13.3419 21.5831C13.2653 21.6691 13.1596 21.7237 13.0452 21.7363V21.7363Z" fill="#1A3849"/>
<path d="M7.95009 21.7365H6.63206C6.2615 21.7365 5.90611 21.5892 5.64408 21.3272C5.38206 21.0652 5.23485 20.7098 5.23485 20.3392V16.1475C5.23198 15.7419 5.35435 15.3454 5.58524 15.0119C5.81613 14.6785 6.1443 14.4245 6.52494 14.2845L8.63938 13.53C8.69349 13.5099 8.75103 13.5008 8.8087 13.503C8.86637 13.5053 8.92302 13.5189 8.97539 13.5432C9.02776 13.5674 9.07483 13.6018 9.11387 13.6443C9.15292 13.6868 9.18318 13.7366 9.20292 13.7908C9.23606 13.9009 9.22728 14.0194 9.17826 14.1235C9.12925 14.2275 9.04347 14.3098 8.93745 14.3543L6.82301 15.1135C6.61223 15.1884 6.42974 15.3266 6.30052 15.5092C6.1713 15.6918 6.10165 15.9098 6.10112 16.1335V20.3252C6.10111 20.4665 6.1569 20.602 6.25634 20.7023C6.35578 20.8026 6.49082 20.8596 6.63206 20.8608H7.95009C8.0662 20.8608 8.17755 20.907 8.25965 20.9891C8.34176 21.0712 8.38788 21.1825 8.38788 21.2986C8.38788 21.4148 8.34176 21.5261 8.25965 21.6082C8.17755 21.6903 8.0662 21.7365 7.95009 21.7365V21.7365Z" fill="#1A3849"/>
<path d="M14.3725 21.7365H7.95001C7.8339 21.7365 7.72255 21.6903 7.64044 21.6082C7.55834 21.5261 7.51222 21.4148 7.51222 21.2987V18.2899C7.50587 18.2283 7.51253 18.1661 7.53176 18.1072C7.55098 18.0483 7.58236 17.9942 7.62384 17.9482C7.66533 17.9022 7.716 17.8654 7.77259 17.8403C7.82917 17.8151 7.89041 17.8021 7.95234 17.8021C8.01426 17.8021 8.0755 17.8151 8.13209 17.8403C8.18867 17.8654 8.23935 17.9022 8.28083 17.9482C8.32232 17.9942 8.35369 18.0483 8.37292 18.1072C8.39214 18.1661 8.3988 18.2283 8.39246 18.2899V20.8609H14.3725C14.444 20.8609 14.5148 20.8466 14.5807 20.8188C14.6466 20.791 14.7063 20.7503 14.7562 20.6991C14.8062 20.6479 14.8453 20.5872 14.8714 20.5205C14.8975 20.4539 14.91 20.3828 14.9081 20.3113V16.1195C14.9079 15.8964 14.8389 15.6788 14.7106 15.4963C14.5822 15.3137 14.4008 15.1752 14.1909 15.0996L12.0718 14.3404C12.0157 14.3227 11.9637 14.2938 11.919 14.2556C11.8743 14.2174 11.8378 14.1705 11.8116 14.1178C11.7854 14.0652 11.7701 14.0078 11.7666 13.9491C11.7631 13.8903 11.7714 13.8315 11.7911 13.7761C11.8109 13.7207 11.8416 13.6698 11.8814 13.6265C11.9212 13.5832 11.9693 13.5484 12.0229 13.5241C12.0765 13.4998 12.1344 13.4866 12.1932 13.4852C12.252 13.4838 12.3105 13.4943 12.3652 13.516L14.4843 14.2845C14.867 14.4224 15.1976 14.6756 15.4303 15.0093C15.6631 15.343 15.7865 15.7407 15.7837 16.1475V20.3392C15.7837 20.5239 15.7471 20.7067 15.676 20.8772C15.6049 21.0476 15.5007 21.2023 15.3695 21.3322C15.2383 21.4621 15.0826 21.5648 14.9115 21.6341C14.7403 21.7035 14.5572 21.7383 14.3725 21.7365Z" fill="#1A3849"/>
<path d="M10.4884 15.0763C9.93576 15.0763 9.39549 14.9124 8.93595 14.6053C8.47641 14.2983 8.11825 13.8618 7.90674 13.3512C7.69524 12.8406 7.6399 12.2787 7.74773 11.7366C7.85555 11.1945 8.12169 10.6966 8.5125 10.3058C8.9033 9.91498 9.40122 9.64883 9.94328 9.541C10.4853 9.43318 11.0472 9.48851 11.5578 9.70002C12.0684 9.91153 12.5049 10.2697 12.8119 10.7293C13.119 11.1888 13.2829 11.7291 13.2829 12.2818C13.2829 13.0229 12.9884 13.7337 12.4644 14.2578C11.9403 14.7819 11.2296 15.0763 10.4884 15.0763ZM10.4884 10.3815C9.98362 10.3828 9.49983 10.5839 9.14286 10.9408C8.7859 11.2978 8.58481 11.7816 8.58358 12.2864C8.58266 12.6645 8.69399 13.0344 8.90346 13.3491C9.11292 13.6638 9.4111 13.9093 9.76021 14.0544C10.1093 14.1995 10.4936 14.2377 10.8645 14.1642C11.2353 14.0907 11.576 13.9087 11.8433 13.6414C12.1107 13.374 12.2926 13.0333 12.3661 12.6625C12.4397 12.2916 12.4015 11.9073 12.2564 11.5582C12.1113 11.2091 11.8658 10.9109 11.5511 10.7014C11.2363 10.4919 10.8665 10.3806 10.4884 10.3815Z" fill="#1A3849"/>
<path d="M10.5023 5.90104C10.3876 5.89428 10.2794 5.84537 10.1986 5.76369C10.1178 5.68202 10.07 5.57335 10.0645 5.45858V4.24298C10.0645 4.12687 10.1106 4.01551 10.1927 3.9334C10.2748 3.8513 10.3862 3.80518 10.5023 3.80518C10.6184 3.80518 10.7297 3.8513 10.8118 3.9334C10.8939 4.01551 10.9401 4.12687 10.9401 4.24298V5.45858C10.9345 5.57335 10.8868 5.68202 10.8059 5.76369C10.7251 5.84537 10.617 5.89428 10.5023 5.90104Z" fill="#1A3849"/>
<path d="M14.0885 7.38676C14.0311 7.38724 13.9741 7.37592 13.9213 7.35348C13.8684 7.33105 13.8207 7.29799 13.7811 7.25635C13.7404 7.21569 13.7081 7.16741 13.6861 7.11426C13.6641 7.06112 13.6527 7.00415 13.6527 6.94662C13.6527 6.88909 13.6641 6.83213 13.6861 6.77899C13.7081 6.72584 13.7404 6.67756 13.7811 6.6369L14.6427 5.77526C14.7249 5.69312 14.8363 5.64697 14.9524 5.64697C15.0686 5.64697 15.18 5.69312 15.2622 5.77526C15.3443 5.85741 15.3904 5.96882 15.3904 6.08499C15.3904 6.20116 15.3443 6.31257 15.2622 6.39471L14.4005 7.25635C14.3598 7.29769 14.3112 7.33051 14.2576 7.3529C14.2041 7.37529 14.1466 7.3868 14.0885 7.38676V7.38676Z" fill="#1A3849"/>
<path d="M16.7945 10.973H15.5742C15.4581 10.973 15.3468 10.9269 15.2647 10.8448C15.1826 10.7627 15.1364 10.6513 15.1364 10.5352C15.1364 10.4191 15.1826 10.3077 15.2647 10.2256C15.3468 10.1435 15.4581 10.0974 15.5742 10.0974H16.7945C16.9106 10.0974 17.0219 10.1435 17.104 10.2256C17.1861 10.3077 17.2323 10.4191 17.2323 10.5352C17.2323 10.6513 17.1861 10.7627 17.104 10.8448C17.0219 10.9269 16.9106 10.973 16.7945 10.973V10.973Z" fill="#1A3849"/>
<path d="M5.42582 10.9729H4.19628C4.13468 10.9793 4.07243 10.9726 4.01357 10.9534C3.9547 10.9342 3.90053 10.9028 3.85455 10.8613C3.80857 10.8198 3.77181 10.7691 3.74665 10.7126C3.7215 10.656 3.7085 10.5947 3.7085 10.5328C3.7085 10.4709 3.7215 10.4096 3.74665 10.353C3.77181 10.2964 3.80857 10.2458 3.85455 10.2043C3.90053 10.1628 3.9547 10.1314 4.01357 10.1122C4.07243 10.093 4.13468 10.0863 4.19628 10.0927H5.41185C5.47345 10.0863 5.5357 10.093 5.59456 10.1122C5.65343 10.1314 5.7076 10.1628 5.75358 10.2043C5.79956 10.2458 5.83631 10.2964 5.86147 10.353C5.88663 10.4096 5.89963 10.4709 5.89963 10.5328C5.89963 10.5947 5.88663 10.656 5.86147 10.7126C5.83631 10.7691 5.79956 10.8198 5.75358 10.8613C5.7076 10.9028 5.65343 10.9342 5.59456 10.9534C5.5357 10.9726 5.47345 10.9793 5.41185 10.9729H5.42582Z" fill="#1A3849"/>
<path d="M6.91617 7.38676C6.79949 7.38392 6.68812 7.33738 6.60412 7.25635L5.74251 6.39471C5.66037 6.31257 5.61423 6.20116 5.61423 6.08499C5.61423 5.96882 5.66037 5.85741 5.74251 5.77526C5.82466 5.69312 5.93606 5.64697 6.05223 5.64697C6.16839 5.64697 6.2798 5.69312 6.36194 5.77526L7.22355 6.6369C7.2833 6.6987 7.32374 6.77657 7.33995 6.86099C7.35616 6.94541 7.34743 7.03271 7.31483 7.11225C7.28222 7.19179 7.22716 7.2601 7.15636 7.30885C7.08556 7.3576 7.0021 7.38467 6.91617 7.38676V7.38676Z" fill="#1A3849"/>
<path d="M17.33 15.0763C17.2513 15.0773 17.1739 15.0563 17.1065 15.0158C17.0569 14.9865 17.0135 14.9477 16.9789 14.9016C16.9443 14.8555 16.9192 14.8031 16.9049 14.7473C16.8906 14.6915 16.8875 14.6334 16.8957 14.5763C16.9039 14.5193 16.9233 14.4645 16.9528 14.415C17.9059 12.8406 18.252 10.9726 17.9262 9.16133C17.7278 8.07412 17.293 7.04378 16.6525 6.14314C16.0121 5.24249 15.1816 4.49354 14.2198 3.94923C13.258 3.40493 12.1884 3.07856 11.0866 2.99321C9.98473 2.90785 8.87761 3.06558 7.84347 3.45526C6.80932 3.84494 5.8734 4.45705 5.10188 5.24831C4.33036 6.03956 3.74207 6.99065 3.37862 8.03432C3.01516 9.078 2.88541 10.1888 2.99853 11.2881C3.11166 12.3875 3.4649 13.4485 4.03328 14.3963C4.09504 14.4964 4.11452 14.6169 4.08744 14.7313C4.06037 14.8457 3.98895 14.9447 3.8889 15.0065C3.78884 15.0682 3.66836 15.0877 3.55394 15.0606C3.43952 15.0336 3.34054 14.9621 3.27878 14.8621C2.50764 13.5832 2.09004 12.1224 2.06873 10.6292C2.04742 9.13598 2.42314 7.66389 3.15748 6.36353C3.89181 5.06318 4.95838 3.98124 6.24809 3.2284C7.5378 2.47557 9.00434 2.07886 10.4977 2.07886C11.991 2.07886 13.4576 2.47557 14.7473 3.2284C16.037 3.98124 17.1036 5.06318 17.8379 6.36353C18.5722 7.66389 18.9479 9.13598 18.9266 10.6292C18.9053 12.1224 18.4877 13.5832 17.7166 14.8621C17.6749 14.927 17.6178 14.9806 17.5503 15.018C17.4829 15.0554 17.4072 15.0754 17.33 15.0763V15.0763Z" fill="#1A3849"/>
<path d="M18.0565 17.5866C17.9509 17.5846 17.8491 17.5469 17.7678 17.4795C17.7242 17.4416 17.6886 17.3956 17.6629 17.3439C17.6372 17.2922 17.6219 17.236 17.618 17.1785C17.6141 17.1209 17.6217 17.0631 17.6402 17.0085C17.6587 16.9538 17.6878 16.9034 17.7259 16.86C18.6478 15.8129 19.331 14.5779 19.7284 13.2406C20.1258 11.9032 20.2278 10.4955 20.0273 9.11485C19.8268 7.73421 19.3286 6.41363 18.5672 5.24458C17.8059 4.07552 16.7995 3.08592 15.6179 2.34429C14.4362 1.60266 13.1075 1.12673 11.7237 0.949448C10.3399 0.772168 8.93417 0.89778 7.60374 1.31758C6.2733 1.73738 5.05 2.44133 4.01855 3.3807C2.98709 4.32008 2.17212 5.47242 1.63007 6.75793C0.935003 8.42623 0.719756 10.2555 1.00859 12.0396C1.29742 13.8237 2.07886 15.4916 3.2648 16.8553C3.33519 16.9457 3.36984 17.0588 3.3621 17.1731C3.35437 17.2873 3.30481 17.3948 3.22288 17.4748C3.17981 17.5135 3.12943 17.5431 3.07472 17.562C3.02 17.5808 2.96206 17.5885 2.90432 17.5846C2.84658 17.5807 2.7902 17.5653 2.73853 17.5392C2.68685 17.5131 2.64092 17.477 2.60345 17.4329C1.21457 15.8455 0.335558 13.8769 0.080787 11.7831C-0.173984 9.68927 0.207279 7.56727 1.17497 5.69313C2.14266 3.81899 3.65199 2.27948 5.50657 1.27489C7.36116 0.270308 9.47515 -0.152849 11.5735 0.0604787C13.4937 0.252883 15.3236 0.971086 16.862 2.13612C18.4004 3.30115 19.5878 4.86789 20.2935 6.66403C20.9992 8.46017 21.196 10.4161 20.8621 12.3169C20.5283 14.2176 19.6768 15.9894 18.4012 17.4375C18.3572 17.4849 18.3039 17.5227 18.2446 17.5483C18.1852 17.574 18.1212 17.587 18.0565 17.5866V17.5866Z" fill="#1A3849"/>
<path d="M10.5023 10.3815C10.3837 10.3743 10.2723 10.3221 10.1909 10.2356C10.1095 10.149 10.0643 10.0346 10.0645 9.91573V7.76398C10.0645 7.64786 10.1106 7.53651 10.1927 7.45441C10.2748 7.3723 10.3862 7.32617 10.5023 7.32617C10.6184 7.32617 10.7297 7.3723 10.8118 7.45441C10.8939 7.53651 10.9401 7.64786 10.9401 7.76398V9.94367C10.9334 10.0576 10.8852 10.1651 10.8044 10.2459C10.7237 10.3266 10.6162 10.3748 10.5023 10.3815V10.3815Z" fill="#1A3849"/>
<path d="M13.8742 10.973H12.0485C11.9396 10.9618 11.8387 10.9106 11.7654 10.8293C11.692 10.748 11.6514 10.6424 11.6514 10.5329C11.6514 10.4234 11.692 10.3178 11.7654 10.2365C11.8387 10.1552 11.9396 10.104 12.0485 10.0928H13.8742C13.9903 10.0928 14.1017 10.1389 14.1838 10.221C14.2659 10.3031 14.312 10.4145 14.312 10.5306C14.312 10.6467 14.2659 10.758 14.1838 10.8401C14.1017 10.9223 13.9903 10.9684 13.8742 10.9684V10.973Z" fill="#1A3849"/>
<path d="M18.7599 21.7365H2.24492C2.136 21.7253 2.03511 21.674 1.96176 21.5927C1.88841 21.5114 1.84781 21.4058 1.84781 21.2963C1.84781 21.1868 1.88841 21.0812 1.96176 20.9999C2.03511 20.9186 2.136 20.8674 2.24492 20.8562H18.7599C18.876 20.8562 18.9874 20.9023 19.0695 20.9844C19.1516 21.0665 19.1977 21.1779 19.1977 21.294C19.1977 21.4101 19.1516 21.5215 19.0695 21.6036C18.9874 21.6857 18.876 21.7318 18.7599 21.7318V21.7365Z" fill="#1A3849"/>
<path d="M16.3054 23.9953H4.70394C4.59502 23.984 4.49413 23.9328 4.42078 23.8515C4.34743 23.7702 4.30682 23.6646 4.30682 23.5551C4.30682 23.4456 4.34743 23.34 4.42078 23.2587C4.49413 23.1774 4.59502 23.1262 4.70394 23.115H16.3054C16.4215 23.115 16.5329 23.1611 16.615 23.2432C16.6971 23.3253 16.7432 23.4367 16.7432 23.5528C16.7432 23.6689 16.6971 23.7803 16.615 23.8624C16.5329 23.9445 16.4215 23.9906 16.3054 23.9906V23.9953Z" fill="#1A3849"/>
</g>
<defs>
<clipPath id="clip0_201_18">
<rect width="21" height="24" fill="white"/>
</clipPath>
</defs>
</svg>
