<svg width="77" height="88" viewBox="0 0 77 88" fill="none" xmlns="http://www.w3.org/2000/svg">
<g clip-path="url(#clip0_1_118)">
<path d="M47.8323 79.7004C47.6041 79.7155 47.3754 79.6816 47.1613 79.6012C46.9473 79.5207 46.7529 79.3954 46.5913 79.2337C46.4296 79.0721 46.3043 78.8776 46.2238 78.6636C46.1433 78.4496 46.1095 78.2208 46.1246 77.9926V66.9606C46.1657 66.5613 46.3535 66.1913 46.6516 65.9223C46.9497 65.6534 47.3369 65.5045 47.7384 65.5045C48.1399 65.5045 48.5271 65.6534 48.8252 65.9223C49.1232 66.1913 49.311 66.5613 49.3521 66.9606V77.9926C49.3547 78.4148 49.2008 78.823 48.9201 79.1384C48.6394 79.4537 48.2519 79.654 47.8323 79.7004Z" fill="#1A3849"/>
<path d="M29.1504 79.7004H24.3176C22.9589 79.7004 21.6558 79.1606 20.695 78.1998C19.7343 77.239 19.1945 75.9359 19.1945 74.5771V59.2074C19.184 57.7204 19.6327 56.2663 20.4793 55.0438C21.3259 53.8212 22.5292 52.8897 23.9248 52.3765L31.6778 49.6099C31.8762 49.5364 32.0872 49.5028 32.2986 49.5111C32.5101 49.5194 32.7178 49.5695 32.9098 49.6584C33.1019 49.7472 33.2744 49.8732 33.4176 50.029C33.5608 50.1848 33.6717 50.3674 33.7441 50.5663C33.8656 50.9701 33.8334 51.4046 33.6537 51.7862C33.474 52.1677 33.1595 52.4692 32.7707 52.6326L25.0178 55.4163C24.2449 55.6908 23.5758 56.1975 23.102 56.867C22.6282 57.5365 22.3728 58.336 22.3708 59.1562V74.5259C22.3708 75.0438 22.5754 75.5408 22.94 75.9086C23.3046 76.2764 23.7997 76.4853 24.3176 76.4898H29.1504C29.5761 76.4898 29.9844 76.6589 30.2855 76.96C30.5865 77.261 30.7556 77.6693 30.7556 78.0951C30.7556 78.5208 30.5865 78.9291 30.2855 79.2302C29.9844 79.5312 29.5761 79.7004 29.1504 79.7004Z" fill="#1A3849"/>
<path d="M52.6991 79.7003H29.15C28.7242 79.7003 28.3159 79.5312 28.0149 79.2301C27.7139 78.9291 27.5447 78.5208 27.5447 78.095V67.063C27.5215 66.8371 27.5459 66.6089 27.6164 66.393C27.6869 66.1772 27.8019 65.9785 27.954 65.8099C28.1061 65.6413 28.2919 65.5066 28.4994 65.4143C28.7069 65.3221 28.9314 65.2744 29.1585 65.2744C29.3856 65.2744 29.6101 65.3221 29.8176 65.4143C30.0251 65.5066 30.2109 65.6413 30.363 65.8099C30.5151 65.9785 30.6301 66.1772 30.7006 66.393C30.7711 66.6089 30.7955 66.8371 30.7723 67.063V76.4897H52.6991C52.9614 76.4898 53.221 76.4374 53.4626 76.3355C53.7043 76.2336 53.9231 76.0844 54.1062 75.8965C54.2892 75.7087 54.4328 75.4861 54.5284 75.2419C54.624 74.9977 54.6698 74.7368 54.6629 74.4746V59.1049C54.6622 58.2868 54.4094 57.4888 53.9388 56.8195C53.4682 56.1503 52.8027 55.6424 52.0331 55.365L44.2631 52.5813C44.0574 52.5164 43.8669 52.4107 43.703 52.2705C43.5391 52.1303 43.4052 51.9585 43.3091 51.7654C43.2131 51.5722 43.157 51.3618 43.1441 51.1465C43.1312 50.9312 43.1618 50.7155 43.2341 50.5123C43.3065 50.3091 43.419 50.1225 43.565 49.9638C43.711 49.8051 43.8875 49.6774 44.084 49.5884C44.2804 49.4993 44.4928 49.4509 44.7084 49.4458C44.924 49.4407 45.1385 49.479 45.3389 49.5586L53.1089 52.3764C54.5124 52.8819 55.7244 53.8104 56.5778 55.0339C57.4312 56.2574 57.8839 57.7157 57.8734 59.2074V74.5771C57.8734 75.2542 57.7393 75.9246 57.4786 76.5496C57.2179 77.1745 56.836 77.7415 56.3548 78.218C55.8737 78.6944 55.3028 79.0707 54.6754 79.3251C54.0479 79.5795 53.3762 79.7071 52.6991 79.7003Z" fill="#1A3849"/>
<path d="M38.4576 55.2797C36.4311 55.2797 34.4501 54.6787 32.7651 53.5528C31.0802 52.4269 29.7669 50.8266 28.9914 48.9543C28.2159 47.082 28.013 45.0218 28.4083 43.0342C28.8037 41.0466 29.7795 39.2209 31.2125 37.7879C32.6454 36.3549 34.4711 35.379 36.4587 34.9836C38.4462 34.5883 40.5064 34.7912 42.3786 35.5667C44.2509 36.3422 45.8511 37.6555 46.977 39.3406C48.1028 41.0256 48.7038 43.0067 48.7038 45.0332C48.7038 47.7508 47.6243 50.3569 45.7027 52.2785C43.7812 54.2001 41.1751 55.2797 38.4576 55.2797ZM38.4576 38.0656C36.6066 38.0701 34.8327 38.8075 33.5238 40.1164C32.2149 41.4253 31.4776 43.1992 31.4731 45.0503C31.4697 46.4365 31.8779 47.7926 32.646 48.9467C33.414 50.1007 34.5073 51.0008 35.7874 51.5328C37.0675 52.0649 38.4767 52.205 39.8364 51.9354C41.1962 51.6658 42.4453 50.9986 43.4255 50.0183C44.4057 49.0381 45.0729 47.7889 45.3425 46.4291C45.6121 45.0693 45.472 43.6601 44.94 42.38C44.4079 41.0999 43.5079 40.0065 42.3539 39.2385C41.1999 38.4704 39.8438 38.0622 38.4576 38.0656Z" fill="#1A3849"/>
<path d="M38.5083 21.6371C38.0878 21.6123 37.6912 21.433 37.3949 21.1335C37.0986 20.834 36.9234 20.4356 36.9031 20.0148V15.5576C36.9031 15.1318 37.0722 14.7235 37.3732 14.4224C37.6743 14.1214 38.0826 13.9523 38.5083 13.9523C38.934 13.9523 39.3423 14.1214 39.6434 14.4224C39.9444 14.7235 40.1135 15.1318 40.1135 15.5576V20.0148C40.0932 20.4356 39.9181 20.834 39.6217 21.1335C39.3254 21.433 38.9289 21.6123 38.5083 21.6371Z" fill="#1A3849"/>
<path d="M51.6578 27.0848C51.4472 27.0866 51.2385 27.0451 51.0446 26.9628C50.8507 26.8806 50.6758 26.7593 50.5307 26.6067C50.3815 26.4576 50.2631 26.2805 50.1823 26.0857C50.1016 25.8908 50.06 25.6819 50.06 25.471C50.06 25.2601 50.1016 25.0512 50.1823 24.8563C50.2631 24.6615 50.3815 24.4844 50.5307 24.3354L53.6899 21.176C53.9911 20.8748 54.3996 20.7056 54.8256 20.7056C55.2515 20.7056 55.66 20.8748 55.9612 21.176C56.2624 21.4772 56.4316 21.8857 56.4316 22.3117C56.4316 22.7376 56.2624 23.1461 55.9612 23.4473L52.8019 26.6067C52.6525 26.7583 52.4743 26.8786 52.2779 26.9607C52.0815 27.0428 51.8707 27.085 51.6578 27.0848Z" fill="#1A3849"/>
<path d="M61.5798 40.2345H57.1056C56.6799 40.2345 56.2716 40.0653 55.9705 39.7643C55.6695 39.4633 55.5004 39.055 55.5004 38.6292C55.5004 38.2035 55.6695 37.7951 55.9705 37.4941C56.2716 37.193 56.6799 37.0239 57.1056 37.0239H61.5798C62.0055 37.0239 62.4138 37.193 62.7148 37.4941C63.0159 37.7951 63.185 38.2035 63.185 38.6292C63.185 39.055 63.0159 39.4633 62.7148 39.7643C62.4138 40.0653 62.0055 40.2345 61.5798 40.2345Z" fill="#1A3849"/>
<path d="M19.8946 40.2344H15.3863C15.1604 40.2577 14.9322 40.2333 14.7164 40.1628C14.5005 40.0923 14.3019 39.9772 14.1333 39.8251C13.9647 39.673 13.8299 39.4872 13.7377 39.2797C13.6454 39.0722 13.5978 38.8477 13.5978 38.6206C13.5978 38.3935 13.6454 38.169 13.7377 37.9615C13.8299 37.754 13.9647 37.5682 14.1333 37.4161C14.3019 37.264 14.5005 37.1489 14.7164 37.0784C14.9322 37.0079 15.1604 36.9835 15.3863 37.0068H19.8434C20.0693 36.9835 20.2975 37.0079 20.5134 37.0784C20.7292 37.1489 20.9278 37.264 21.0964 37.4161C21.265 37.5682 21.3998 37.754 21.492 37.9615C21.5843 38.169 21.6319 38.3935 21.6319 38.6206C21.6319 38.8477 21.5843 39.0722 21.492 39.2797C21.3998 39.4872 21.265 39.673 21.0964 39.8251C20.9278 39.9772 20.7292 40.0923 20.5134 40.1628C20.2975 40.2333 20.0693 40.2577 19.8434 40.2344H19.8946Z" fill="#1A3849"/>
<path d="M25.3593 27.0848C24.9315 27.0744 24.5231 26.9038 24.2151 26.6067L21.0559 23.4473C20.7547 23.1461 20.5855 22.7376 20.5855 22.3117C20.5855 21.8857 20.7547 21.4772 21.0559 21.176C21.3571 20.8748 21.7656 20.7056 22.1915 20.7056C22.6175 20.7056 23.026 20.8748 23.3271 21.176L26.4864 24.3354C26.7054 24.562 26.8537 24.8475 26.9132 25.157C26.9726 25.4666 26.9406 25.7867 26.821 26.0783C26.7015 26.3699 26.4996 26.6204 26.24 26.7992C25.9804 26.9779 25.6744 27.0772 25.3593 27.0848Z" fill="#1A3849"/>
<path d="M63.5433 55.2797C63.2548 55.2832 62.971 55.2063 62.7237 55.0576C62.5417 54.9502 62.3828 54.808 62.256 54.639C62.1292 54.4701 62.0369 54.2778 61.9846 54.0731C61.9322 53.8685 61.9208 53.6555 61.9509 53.4464C61.981 53.2373 62.0521 53.0362 62.1601 52.8546C65.6551 47.0821 66.9241 40.2328 65.7292 33.5913C65.0018 29.6049 63.4075 25.827 61.0592 22.5246C58.7109 19.2223 55.6658 16.4761 52.1392 14.4803C48.6126 12.4845 44.6907 11.2878 40.6507 10.9749C36.6106 10.6619 32.5512 11.2402 28.7593 12.6691C24.9675 14.0979 21.5358 16.3423 18.7068 19.2436C15.8779 22.1448 13.7209 25.6322 12.3882 29.459C11.0556 33.2858 10.5798 37.3586 10.9946 41.3896C11.4094 45.4205 12.7046 49.3111 14.7886 52.7863C15.0151 53.1532 15.0865 53.595 14.9873 54.0145C14.888 54.4341 14.6261 54.797 14.2592 55.0235C13.8924 55.2499 13.4506 55.3214 13.0311 55.2221C12.6115 55.1228 12.2486 54.8609 12.0222 54.4941C9.19462 49.8049 7.66345 44.4487 7.5853 38.9736C7.50715 33.4984 8.88482 28.1007 11.5774 23.3327C14.2699 18.5648 18.1807 14.5977 22.9096 11.8373C27.6385 9.07685 33.0159 7.62225 38.4914 7.62225C43.967 7.62225 49.3444 9.07685 54.0733 11.8373C58.8022 14.5977 62.713 18.5648 65.4055 23.3327C68.0981 28.1007 69.4757 33.4984 69.3976 38.9736C69.3194 44.4487 67.7883 49.8049 64.9607 54.4941C64.808 54.7321 64.5985 54.9286 64.3512 55.0657C64.1038 55.2028 63.8262 55.2763 63.5433 55.2797Z" fill="#1A3849"/>
<path d="M66.2073 64.4844C65.8201 64.4773 65.4467 64.3388 65.1486 64.0916C64.9888 63.9529 64.8581 63.784 64.7639 63.5946C64.6696 63.4052 64.6138 63.199 64.5995 62.988C64.5852 62.7769 64.6128 62.5651 64.6806 62.3647C64.7485 62.1643 64.8553 61.9793 64.9949 61.8203C68.3751 57.9809 70.8805 53.4526 72.3375 48.549C73.7946 43.6454 74.1685 38.4838 73.4333 33.4214C72.6981 28.3591 70.8715 23.517 68.0798 19.2304C65.2882 14.9439 61.5983 11.3153 57.2656 8.59604C52.9328 5.87673 48.0609 4.13164 42.987 3.48162C37.9131 2.83159 32.7586 3.29216 27.8804 4.83142C23.0021 6.37069 18.5167 8.95185 14.7347 12.3962C10.9527 15.8406 7.96443 20.0658 5.97691 24.7794C3.42834 30.8965 2.6391 37.6039 3.69816 44.1455C4.75723 50.6871 7.62247 56.8028 11.9709 61.8032C12.229 62.1345 12.3561 62.5493 12.3277 62.9683C12.2994 63.3872 12.1176 63.7811 11.8172 64.0746C11.6593 64.2163 11.4746 64.325 11.274 64.3941C11.0733 64.4633 10.8609 64.4916 10.6492 64.4772C10.4374 64.4629 10.2307 64.4063 10.0413 64.3107C9.85178 64.2152 9.68338 64.0826 9.546 63.9209C4.45341 58.1005 1.23038 50.8821 0.296219 43.2049C-0.63794 35.5276 0.760023 27.7469 4.30823 20.8751C7.85643 14.0033 13.3906 8.35841 20.1908 4.67492C26.9909 0.991434 34.7422 -0.56014 42.4362 0.222061C49.4768 0.927544 56.1864 3.56095 61.8273 7.83274C67.4682 12.1045 71.8219 17.8492 74.4096 24.4351C76.9972 31.0209 77.7187 38.1928 76.4945 45.1621C75.2704 52.1314 72.1481 58.6282 67.471 63.9379C67.3099 64.1117 67.1143 64.2501 66.8967 64.3442C66.6791 64.4383 66.4444 64.486 66.2073 64.4844Z" fill="#1A3849"/>
<path d="M38.5083 38.0655C38.0734 38.0394 37.6649 37.848 37.3665 37.5305C37.0681 37.213 36.9023 36.7935 36.9031 36.3578V28.468C36.9031 28.0423 37.0722 27.634 37.3732 27.3329C37.6743 27.0319 38.0826 26.8627 38.5083 26.8627C38.9341 26.8627 39.3423 27.0319 39.6434 27.3329C39.9444 27.634 40.1135 28.0423 40.1135 28.468V36.4602C40.0892 36.878 39.9122 37.2723 39.6163 37.5682C39.3204 37.8642 38.9261 38.0411 38.5083 38.0655Z" fill="#1A3849"/>
<path d="M50.8721 40.2345H44.1779C43.7785 40.1934 43.4086 40.0056 43.1396 39.7075C42.8707 39.4094 42.7218 39.0222 42.7218 38.6207C42.7218 38.2192 42.8707 37.8319 43.1396 37.5338C43.4086 37.2357 43.7785 37.048 44.1779 37.0068H50.8721C51.2978 37.0068 51.7061 37.176 52.0071 37.477C52.3082 37.7781 52.4773 38.1864 52.4773 38.6121C52.4773 39.0379 52.3082 39.4462 52.0071 39.7472C51.7061 40.0483 51.2978 40.2174 50.8721 40.2174V40.2345Z" fill="#1A3849"/>
<path d="M68.7863 79.7003H8.23141C7.83204 79.6592 7.46211 79.4714 7.19316 79.1733C6.9242 78.8752 6.77533 78.488 6.77533 78.0865C6.77533 77.685 6.9242 77.2977 7.19316 76.9997C7.46211 76.7016 7.83204 76.5138 8.23141 76.4727H68.7863C69.212 76.4727 69.6203 76.6418 69.9214 76.9428C70.2224 77.2439 70.3915 77.6522 70.3915 78.0779C70.3915 78.5037 70.2224 78.912 69.9214 79.2131C69.6203 79.5141 69.212 79.6832 68.7863 79.6832V79.7003Z" fill="#1A3849"/>
<path d="M59.7864 87.9829H17.2477C16.8483 87.9418 16.4784 87.754 16.2095 87.4559C15.9405 87.1578 15.7916 86.7706 15.7916 86.3691C15.7916 85.9676 15.9405 85.5803 16.2095 85.2822C16.4784 84.9842 16.8483 84.7964 17.2477 84.7552H59.7864C60.2121 84.7552 60.6204 84.9244 60.9215 85.2254C61.2225 85.5265 61.3916 85.9348 61.3916 86.3605C61.3916 86.7863 61.2225 87.1946 60.9215 87.4956C60.6204 87.7967 60.2121 87.9658 59.7864 87.9658V87.9829Z" fill="#1A3849"/>
</g>
<defs>
<clipPath id="clip0_1_118">
<rect width="77" height="88" fill="white"/>
</clipPath>
</defs>
</svg>
